<svg xmlns="http://www.w3.org/2000/svg" xmlns:xlink="http://www.w3.org/1999/xlink" width="500" zoomAndPan="magnify" viewBox="0 0 375 374.999991" height="500" preserveAspectRatio="xMidYMid meet" version="1.0"><defs><g/></defs><g fill="#31afff" fill-opacity="1"><g transform="translate(12.783821, 266.328733)"><g><path d="M 169.28125 -40.8125 C 171.53125 -41.707031 173.398438 -42.15625 174.890625 -42.15625 C 177.285156 -42.15625 179.078125 -41.253906 180.265625 -39.453125 C 181.460938 -37.660156 182.0625 -35.347656 182.0625 -32.515625 C 182.0625 -28.023438 180.976562 -24.210938 178.8125 -21.078125 C 176.644531 -17.941406 172.945312 -15.101562 167.71875 -12.5625 C 158.894531 -8.375 147.457031 -5.046875 133.40625 -2.578125 C 119.351562 -0.109375 105.53125 1.125 91.9375 1.125 C 73.09375 1.125 57.316406 -1.003906 44.609375 -5.265625 C 31.910156 -9.523438 22.457031 -15.390625 16.25 -22.859375 C 10.050781 -30.335938 6.953125 -38.785156 6.953125 -48.203125 C 6.953125 -61.054688 11.097656 -72.003906 19.390625 -81.046875 C 27.691406 -90.097656 39.914062 -96.640625 56.0625 -100.671875 C 47.238281 -103.210938 40.472656 -107.695312 35.765625 -114.125 C 31.054688 -120.550781 28.703125 -127.726562 28.703125 -135.65625 C 28.703125 -146.414062 32.101562 -155.941406 38.90625 -164.234375 C 45.707031 -172.535156 54.863281 -178.925781 66.375 -183.40625 C 77.882812 -187.894531 90.515625 -190.140625 104.265625 -190.140625 C 122.796875 -190.140625 136.695312 -186.140625 145.96875 -178.140625 C 155.238281 -170.140625 159.875 -159.789062 159.875 -147.09375 C 159.875 -138.269531 158.265625 -131.128906 155.046875 -125.671875 C 151.835938 -120.210938 147.242188 -117.484375 141.265625 -117.484375 C 137.078125 -117.484375 133.785156 -118.414062 131.390625 -120.28125 C 129.003906 -122.15625 127.8125 -124.960938 127.8125 -128.703125 C 127.8125 -131.242188 128.179688 -134.007812 128.921875 -137 C 129.671875 -141.925781 130.046875 -145.289062 130.046875 -147.09375 C 130.046875 -152.46875 128.023438 -156.835938 123.984375 -160.203125 C 119.953125 -163.566406 113.226562 -165.25 103.8125 -165.25 C 91.101562 -165.25 80.9375 -162.554688 73.3125 -157.171875 C 65.695312 -151.796875 61.890625 -144.546875 61.890625 -135.421875 C 61.890625 -128.398438 64.765625 -122.609375 70.515625 -118.046875 C 76.273438 -113.492188 85.65625 -110.992188 98.65625 -110.546875 C 101.945312 -110.390625 104.265625 -109.640625 105.609375 -108.296875 C 106.953125 -106.953125 107.625 -104.710938 107.625 -101.578125 C 107.625 -91.703125 103.140625 -86.691406 94.171875 -86.546875 C 81.765625 -86.242188 71.488281 -84.523438 63.34375 -81.390625 C 55.195312 -78.253906 49.289062 -74.253906 45.625 -69.390625 C 41.96875 -64.535156 40.140625 -59.34375 40.140625 -53.8125 C 40.140625 -44.539062 44.472656 -37.550781 53.140625 -32.84375 C 61.804688 -28.132812 75.554688 -25.78125 94.390625 -25.78125 C 106.796875 -25.78125 119.910156 -27.238281 133.734375 -30.15625 C 147.566406 -33.070312 159.414062 -36.625 169.28125 -40.8125 Z M 169.28125 -40.8125 "/></g></g></g><g fill="#ff3d31" fill-opacity="1"><g transform="translate(166.592409, 266.328733)"><g><path d="M 200 -49.546875 C 201.945312 -49.546875 203.476562 -48.613281 204.59375 -46.75 C 205.71875 -44.882812 206.28125 -42.53125 206.28125 -39.6875 C 206.28125 -36.25 205.753906 -33.554688 204.703125 -31.609375 C 203.660156 -29.671875 202.019531 -27.953125 199.78125 -26.453125 C 190.957031 -20.628906 176.90625 -11.0625 157.625 2.25 C 151.789062 33.1875 144.238281 57.546875 134.96875 75.328125 C 125.707031 93.117188 113.976562 102.015625 99.78125 102.015625 C 92.15625 102.015625 85.953125 99.660156 81.171875 94.953125 C 76.390625 90.242188 74 84.078125 74 76.453125 C 74 69.429688 75.566406 62.332031 78.703125 55.15625 C 81.835938 47.976562 87.703125 39.679688 96.296875 30.265625 C 104.890625 20.847656 117.035156 10.085938 132.734375 -2.015625 L 133.40625 -6.28125 C 121.601562 -1.34375 110.019531 1.125 98.65625 1.125 C 81.914062 1.125 67.191406 -2.125 54.484375 -8.625 C 41.773438 -15.132812 31.90625 -24.367188 24.875 -36.328125 C 17.851562 -48.285156 14.34375 -62.1875 14.34375 -78.03125 C 14.34375 -100.15625 18.53125 -119.695312 26.90625 -136.65625 C 35.28125 -153.625 46.828125 -166.78125 61.546875 -176.125 C 76.273438 -185.46875 92.753906 -190.140625 110.984375 -190.140625 C 128.472656 -190.140625 141.585938 -186.066406 150.328125 -177.921875 C 159.078125 -169.773438 163.453125 -158.972656 163.453125 -145.515625 C 163.453125 -136.703125 161.84375 -129.640625 158.625 -124.328125 C 155.414062 -119.023438 150.820312 -116.375 144.84375 -116.375 C 140.8125 -116.375 137.5625 -117.34375 135.09375 -119.28125 C 132.625 -121.226562 131.390625 -123.921875 131.390625 -127.359375 C 131.390625 -128.847656 131.691406 -131.390625 132.296875 -134.984375 C 133.191406 -139.171875 133.640625 -142.457031 133.640625 -144.84375 C 133.640625 -151.125 131.734375 -155.984375 127.921875 -159.421875 C 124.109375 -162.859375 117.71875 -164.578125 108.75 -164.578125 C 97.832031 -164.578125 87.703125 -161.4375 78.359375 -155.15625 C 69.015625 -148.882812 61.503906 -139.503906 55.828125 -127.015625 C 50.148438 -114.535156 47.3125 -99.550781 47.3125 -82.0625 C 47.3125 -64.125 52.207031 -50.257812 62 -40.46875 C 71.789062 -30.675781 85.953125 -25.78125 104.484375 -25.78125 C 114.796875 -25.78125 125.5625 -28.097656 136.78125 -32.734375 L 139.90625 -60.09375 L 117.046875 -60.09375 C 112.859375 -60.09375 109.640625 -61.097656 107.390625 -63.109375 C 105.148438 -65.128906 104.03125 -68.457031 104.03125 -73.09375 C 104.03125 -77.28125 105.148438 -80.566406 107.390625 -82.953125 C 109.640625 -85.347656 112.632812 -86.546875 116.375 -86.546875 L 158.296875 -86.546875 C 161.585938 -86.546875 164.316406 -85.460938 166.484375 -83.296875 C 168.648438 -81.128906 169.507812 -78.03125 169.0625 -74 C 168.613281 -69.207031 167.117188 -58.367188 164.578125 -41.484375 L 162.109375 -24.4375 C 174.066406 -33.40625 184.976562 -41.179688 194.84375 -47.765625 C 196.789062 -48.953125 198.507812 -49.546875 200 -49.546875 Z M 102.25 80.265625 C 106.132812 80.265625 110.390625 75.851562 115.015625 67.03125 C 119.648438 58.21875 123.988281 44.019531 128.03125 24.4375 C 116.664062 34.15625 108.476562 42.9375 103.46875 50.78125 C 98.46875 58.632812 95.96875 65.550781 95.96875 71.53125 C 95.96875 77.351562 98.0625 80.265625 102.25 80.265625 Z M 102.25 80.265625 "/></g></g></g></svg>